<svg viewBox="0 0 24 24" xmlns="http://www.w3.org/2000/svg"><path d="m6.5 12c0 .4.3.7.7.7h4s.1 0 .1.1v4c0 .4.3.7.7.7s.7-.3.7-.7v-4s0-.1.1-.1h4c.4 0 .7-.3.7-.7s-.3-.7-.7-.7h-4s-.1 0-.1-.1v-4c0-.4-.3-.7-.7-.7s-.7.3-.7.7v4s0 .1-.1.1h-4c-.4 0-.7.3-.7.7z"/><path d="m23.3 8.4c-1.6-4.3-5.7-7.8-9.8-8.2-1.9-.2-4 .3-5.8 1.3-.8-.8-1.9-1.4-3.2-1.4-2.4.1-4.3 2-4.3 4.5s.9 3 2.1 3.7c-.2.5-.5 1-.7 1.5-3.1 7.3-.7 10.8 1 12.2 1.6 1.3 3.9 2 6.4 2s6.6-1 9.5-3c4.6-3.1 6.3-7.7 4.7-12.5zm-21.1-3.8c0-1.3 1.1-2.4 2.4-2.4s1.1.2 1.5.6c.5.4.8 1.1.8 1.8s0 .1 0 .2c0 .9-.7 1.7-1.5 2-.3.1-.6.2-.9.2-.5 0-.9-.1-1.3-.4-.6-.4-1.1-1.2-1.1-2zm15.3 14.7c-4.4 3-10.6 3.5-13.5 1.1-2.3-1.9-2.4-5.3-.4-9.9.2-.5.5-1.1.7-1.6h.3c2.4 0 4.4-2 4.4-4.4s0-.9-.2-1.3c1.4-.9 3.1-1.3 4.5-1.1 3.3.4 6.8 3.3 8.1 6.9 1.8 5.3-1.7 8.7-3.9 10.2z"/></svg>