<svg viewBox="0 0 24 24" xmlns="http://www.w3.org/2000/svg"><path d="m1.6 21.7c-1-.8-1.5-2.1-1.4-3.3.2-1.8 1.6-3.6 3.2-4.3 6.4-2.9 9.1 12 .6 8.9-.5-.2-.9-.4-1.4-.6-.4-.2-.7-.4-1-.7z"/><path d="m15.8.9c1-.7 2.3-.9 3.4-.4 1.6.6 2.9 2.3 3.2 4 1 6.7-13.4 5.3-8.3-1.7.3-.4.6-.8.9-1.1s.5-.6.9-.8z"/><path d="m19.7 10c1.8.6 3.2 2.2 3.6 4 .6 2.6-.5 5.9-2.4 7.9-7.9 7.4-19.1-12.9-5.3-12.5.8 0 1.5 0 2.3.2.6 0 1.2.2 1.8.4z"/><path d="m.2 5.7c-.2-1.5.6-3.2 1.8-4.1 1.7-1.3 4.6-1.6 6.7-.9 8.2 3.3-3 18.7-7.5 8.3-.3-.6-.5-1.2-.6-1.8-.1-.5-.3-1-.3-1.5z"/></svg>