<svg viewBox="0 0 24 24" xmlns="http://www.w3.org/2000/svg" xmlns:xlink="http://www.w3.org/1999/xlink"><clipPath id="a"><path d="m0 0h24v24h-24z"/></clipPath><g clip-path="url(#a)"><path d="m1.5 10.5h1.5c.8 0 1.5.7 1.5 1.5s-.7 1.5-1.5 1.5h-1.5c-.8 0-1.5-.7-1.5-1.5s.7-1.5 1.5-1.5zm9-9c0-.8.7-1.5 1.5-1.5s1.5.7 1.5 1.5v1.5c0 .8-.7 1.5-1.5 1.5s-1.5-.7-1.5-1.5zm12 12h-1.5c-.8 0-1.5-.7-1.5-1.5s.7-1.5 1.5-1.5h1.5c.8 0 1.5.7 1.5 1.5s-.7 1.5-1.5 1.5zm-9 9c0 .8-.7 1.5-1.5 1.5s-1.5-.7-1.5-1.5v-1.5c0-.8.7-1.5 1.5-1.5s1.5.7 1.5 1.5zm-7.9-19 1.1 1.1c.6.6.6 1.5 0 2.1s-1.5.6-2.1 0l-1.1-1.1c-.6-.6-.6-1.5 0-2.1s1.5-.6 2.1 0zm12.8 0c.6-.6 1.5-.6 2.1 0s.6 1.5 0 2.1l-1.1 1.1c-.6.6-1.5.6-2.1 0s-.6-1.5 0-2.1zm0 17-1.1-1.1c-.6-.6-.6-1.5 0-2.1s1.5-.6 2.1 0l1.1 1.1c.6.6.6 1.5 0 2.1s-1.5.6-2.1 0zm-12.8 0c-.6.6-1.5.6-2.1 0s-.6-1.5 0-2.1l1.1-1.1c.6-.6 1.5-.6 2.1 0s.6 1.5 0 2.1z" fill-rule="evenodd"/></g></svg>